<?xml version="1.0" encoding="UTF-8"?>
<svg id="Layer_1" xmlns="http://www.w3.org/2000/svg" viewBox="0 0 694.55 175.96">
  <defs>
    <style>
      .cls-1 {
        fill: #fff;
      }

      .cls-2 {
        fill: #437d38;
      }
    </style>
  </defs>
  <path class="cls-1" d="M289.64,13.95c1.12-1.54,2.22-3.05,3.31-4.56.46-.18.92-.47,1.39-.52,6.5-.74,13-1.72,19.52-2.08,6.45-.36,13.15,1.41,19.33-.42,9.93-2.94,19.78-1.62,29.65-1.68,43.41-.28,86.83-.15,130.24-.05,3.43,0,6.88-.96,10.32,1.83,1.73,1.4,4.72,1.02,6.84.11,9.02-3.89,18.21-1.31,27.3-1.93,5.41-.37,10.86.21,16.28-.15,5.23-.35,10.42-1.44,15.64-2.02,2.31-.25,4.67-.32,6.97.04,2.14.33,4.21,1.73,6.35,1.97,3.99.46,7.88-.08,11.8-1.9,3.46-1.61,7.54,1.65,11.02-2.17.79-.87,2.51-.13,3.8-.13,4.91,0,9.82-.13,14.73.04,4.29.15,8.85-.48,12.8,1.29,4.1,1.84,8.5-1.34,12.39,2.72,1.31,1.37,4.02.22,6.08.22,6.72,0,13.51.82,20.14-.22,7.14-1.12,14.02,6.87,16.76,15.8,1.26,4.12,2.34,8.69,2.26,13.74-.22,13.98-2.77,27.78-1.68,41.84-2.84,9.8-.52,20.18-1.71,30.05-1.08,8.99-.52,18.16-1.74,26.83-.83,5.88-1.16,11.59-1.1,17.36.05,4.66-1.31,8.59-2.4,12.58-2.03,7.38-6.07,11.19-12.02,10.94-4.91-.21-10.02,1.12-14.67-.4-3.99-1.3-7.96-2.55-11.8-1.62-12.94,3.12-25.94,1.72-38.92,1.93-12.92.21-25.84-.07-38.76.14-2.63.04-5.24,1.6-7.89,1.96-2.56.35-5.3.81-7.72-.05-9.55-3.39-19.23-1.69-28.84-1.95-9.82-.26-19.64.14-29.46-.13-6.58-.18-12.84,3.01-19.53,2.52-3.82-.28-7.23-2.32-10.97-2.57-3.67-.25-7.54,1.8-11.08-1.87-.99-1.03-3.02-.16-4.57-.16h-98.46c-14.96,3.78-30.06,1.6-45.1,2.08-1.95.06-3.94-.48-5.85-1.12-5.51-1.84-6.26-8.61-7.7-14.61-.15-.64-.05-1.42-.02-2.13,1.18-21.86-2.27-43.49-1.65-65.35.14-5.01-1.13-10.07-1.4-15.14-.26-4.96.84-10.41-.31-14.82-1.17-4.49-2.03-9.06-1.14-13.06,2.45-11.03.69-22.22,1.56-33.22Z"/>
  <g>
    <path class="cls-2" d="M353.11,72.55c-8.28,4.86-6.18.34-11.38-4.23-4.39-1.88-5.11.97-7.36,3.57-1.72,2.74-1.64,6.64-1.85,9.8-1.75,1.1-.02,2.59-.71,3.68-.27.24-.65.55-.23.92.96,4.33-.86,9.67.92,14.14.43,3.83,4.26,10.48,8.9,7.37,1.19-1.68,4.13-2.59,3.5-4.78.94-2.78,1.29-3.35-1.02-5.35-1.89.69-2.75-.61-4.45-1.18-.78-3.6-1.32-8.38-.35-12.04.33-2.48,3.43-1.49,5.1-1.98,7.28.78,14.77-1.69,21.72,1.08.92,4.44-.82,9.04-1.23,13.72-1.25,19.47-10.67,30.36-30.63,28.04-11.37-2.3-17.98-12.41-21.22-22.91-.56-4.74-1.25-10.55-.76-15.25-.39-4.33-.21-8.91,1.33-12.83-.48-2.48,1.46-4.67,2.31-6.73.64-.82-.46-2.34,1.06-2.78,2.22-3.83,4.81-8.28,9.28-10.27,8.06-5.42,23.29-6.18,29.77,2.45,8.79,8.39,11.5,12.24-2.66,15.77-.01-.06-.03-.13-.05-.19h0ZM323.72,83.3c.22-1.34-2.69-2.82-2.13-.64.39,1.39,1.96,3.38,2.13.64ZM325.34,68.51c.31-.25.57-.45.83-.66-.61-.46-1.01-.51-1.47.16.18.14.35.28.64.5ZM329.1,58.38c-1.74.75.61,2.48,1.5,1.56.49-1-.85-1.08-1.5-1.56ZM330.87,66.17c-.46-.51-.93.23-.47.53.14-.16.28-.31.47-.53ZM331.14,61.34c-.26-.31-.48-.41-.64-.07.09.37.32.32.64.07ZM337.85,118.32c-1.43-.12-1.84,2.57-.32,2.87,1.69.08,2.09-2.66.32-2.87ZM343.46,63.23c2.67-.52-2.13-3.51-1.39-.74.34.51.78.87,1.39.74ZM347.44,117.68c-.65.59-.34,1.75.68,1.59,1.52-.24.92-1.74-.68-1.59ZM348.94,112.28c-.64-.37-.69-.46-1.16-.08.4.47.47.35,1.16.08ZM351.93,59.2c-.67.7-.23,1.5.56.87-.15-.24-.3-.48-.56-.87Z"/>
    <path class="cls-2" d="M393.95,100.37c-1.06,1.92.67,3.95-.11,5.78-1.22,1.08.68,2.21,0,3.14-.4.36-.4.71.02,1.06-.96,3.99,2.31,11.05-2.4,13.48-1.12.05-2.09.74-3.18.15-.92,1.08-1.49-.26-2.54-.12-.69-.2-1.02.64-1.56.58-.92-.59-1.84.44-2.66-.19-1.23-.86-2.47,1.02-3.78-.24-6,.89-2.3-11.72-2.98-15.14-.54-3.18-.43-6.83-.52-10.18.08-.9-.85-2.24.38-2.86.3-.13.39-.46.12-.8-1.25-5.85.73-12.66-.45-18.13-.21-1.04,0-2.4.28-3.5,0-.9-1.17-1.98-.2-2.88-.51-2.82.48-6,.05-8.71-.37-.67-.77-1.6.28-2.23-.04-1.08-.93-2.04-.29-3.31.25-4.66,2.8-5.19,7.18-4.38,3.24-.34,7.15.25,10.11-.82,2.58,1.78,5.54-.35,8.14,1.69,15.63-.9,25.88,13.7,22.12,27.79-1.26,4.03-3.8,7.36-7,10.42-5.41,3.55-1.49,5.47-.99,9.3,1.76,2.58,2.95,5.31,4.61,7.89.39.97-.42,2.15.88,2.71,1.27.41-.29,1.85.88,2.08,1.8,1.58,2.05,5.28,3.51,7.38,1.29.68.47,1.93.89,2.84-.02,1.51-2.06.4-2.86.94-2.96.28-6.3-.65-9.19.24-9.44.26-7.55-1.47-11.29-8.42.71-1.82-2.13-2.66-1.2-4.47-.41-.96-1.75-1.5-.96-2.8-1.98-3.84-3.16-8.57-4.91-12.52-.44,1.29-.28,2.82-.5,4.2.04,0,.07.02.11.03h0ZM381.98,58.25c2.83.27-.16-2.16-1.21-.79.18.56.73.93,1.21.79ZM395.58,85.59c6.42-.9,9.75-8.72,5.99-14.13-1.98-2.18-4.31-2.85-6.88-3.16-1.23-.27-.1,2.47-.41,3.07-.8,1.04.09,1.96-.11,3.01-.92,1.15.2,2.17-.29,3.39.3,2.54-.92,6.11,1.7,7.83h0Z"/>
    <path class="cls-2" d="M460.78,125.48c-21.46,1.62-32.33-22.08-29.74-40.98.34-1.42-.7-2.46.31-3.78.39-1.52-.31-2.97.37-4.41,1.72-3.22.49-7.56,3.32-10.13,4.23-8.6,13.55-16.64,23.44-15.76,35.81-.74,36.85,71.88,2.3,75.06h0ZM458.57,68.8c-10.2-.86-9.83,37.75-1.02,38.39,10.74,2.01,10.73-39.38,1.02-38.39ZM476.77,98.23c-.33-.47-.71-.03-1.1.13.12.11.23.21.43.38.27-.2.47-.35.68-.51Z"/>
    <path class="cls-2" d="M513.79,56.23c-.69,4.28-.26,8.49-.04,12.89-.33,4.88-.01,9.39-.2,14.06.23,5.53-3.03,26.77,6.36,23.66,6.53-.74,2.14-17.98,4.04-22.29-.13-3.24-.68-6.47-.56-9.7.12-.38.9-.75.26-1.15-.93-.52-.16-1.29-.48-2.11.63-1.8-.1-3.33.59-5.1-1.32-1.32.68-3.14-.19-4.47-.35-.31-.21-.76-.09-1.19.53-5.21-1.43-10.73,6.47-8.73,3.4-.19,12.6-2.47,13,2.56-.03,3.91.56,7.82.13,11.59-.29,1.07.96,1.99-.01,3.02-.2.44-.55.71-.06,1.19-.23,5.69.4,11.24.29,17.07-1.02,2.19.13,4.96-.17,7.12-1.1.88-.35,1.88.07,2.8-.73.82-.18,1.45.16,2.2-1.18,5.35-.35,11.19-3.51,16.09-.97.22-.55,1.37-1.3,1.7-1.8-.01-1.47,2.24-2.9,2.6-.74.38-.73,1.57-1.89,1.27-1,.26-1.28,1.94-2.63,1.62-4.61,2.52-10.75,2.74-15.36,2.05-.76.43-1.19-.69-1.89-.21-2.26.89-4.22-1.96-6.65-1.6-4.22-.9-6.2-4.41-8.59-7.37-1.53-4.14-3.06-8.33-4.17-12.64-.86-1.47.22-3.3-.52-4.75-1.2-1.09.59-2.2,0-3.16-.44-.37-.38-.86-.3-1.33.39-2.64,1.04-5.1,0-7.46.96-1.56-.18-2.61.24-4.25.2-4.72.4-9.78-.03-14.58,1.24-6.35-3.66-18.13,7.35-16.13,2.23-.55,4.75.22,6.89.52,2.49-1.47,6.37,1,5.6,4.14.04,0,.08.01.12.02h0Z"/>
    <path class="cls-2" d="M576.49,100.49c.14-1.79-2.3-2.73-1.52-4.96-1.12-2.14-1.94-4.37-2.23-6.91-1.23-3.09-3.21-6.94-1.59-.33-.21,4.2-.03,8.28.36,12.57.09,3.24.65,6.41.01,9.74-.4,3.69,1.97,11.96-2.13,13.61-3.48-.11-6.73.28-10.13-.24-1.83-.28-4.64,1.12-5.72-1.18-1.07-9.71-.05-19.93-.65-29.59.94-9.84-.7-20.48.47-30.52.77-.71-.41-1.69-.33-2.43,1.12-.81-.44-1.4-.09-2.35.52-9.78,4.82-4.71,11.4-6.25,1.58-.09,3.25.87,4.74.13.76-.59,1.21.7,1.87.71,3.86,3.26,4.69,10.35,6.63,15.07.29,1.84,1.64,1.67,1.48,3.95,1.47,2.57,1.93,5.58,3.21,8.26,3.02,3.93,2.35,9.03,4.77,13.28.76-2.85.05-6.64-1.03-9.59.26-2.09.05-5.02-.5-7.04-.5-3.61.61-7.65-.32-11.12-.69-1,.89-1.24.45-2.02-1.28-1.93.89-4.35-.55-6.22.44-2.25.34-5.56,3.87-5.01,3.87-.89,8.31.04,12.27-.17,4.89-.29,2.77,14.71,2.55,18.06.69,5.04.45,10.28.19,15.32.32,5.44.71,10.93-.03,15.98-.46,7.23,1.21,15.72-.93,22.31-1.55.72-3.34,1.27-4.93.75-.65-.79-1.42-.52-2.11-.1-.87,1-1.32-.98-2.13-.13-1.72,1.41-3.89-1.05-5.93.05-3.87-1.27-4.11-5.54-5.62-8.61-1.8-1.9-1.17-5.18-2.52-7.39-.62-2.79-2.86-4.84-3.26-7.64h0ZM572.16,68.14c-.31-.25-.55-.31-.63.06.16.34.38.24.63-.06Z"/>
    <path class="cls-2" d="M614.58,119.58c-.13-14.04.16-27.79-.11-41.7-.46-6.33.66-13.54.13-18.85-.36-9.46,2.73-6.43,9.91-7.09.63-.73,1.36.55,2.04-.1.36-.25.69-.15,1.03.09,1.41.94,2.78-.49,4.31.06,3.22.54,7.26.65,10.67,2.19,1.17,1.48,3.67.13,4.55,1.54.54.79,1.17.82,1.91.8.6-.02,1.02.09,1.22.75.37.67,1.38.48,1.75,1.21,2.55.44,3.05,3.32,4.92,4.76,3.88,2.4,3.88,7.28,5.9,10.83.62,4.36,1.57,8.63,1.79,12.95.61,5.87-.82,12.05-2.24,17.48-2.23,5.09-4.43,10.64-9.74,13.77-2.2,1.65-5.23,2.87-7.99,3.25-1.13.91-2.08,1.5-3.62,1.3-5.13,1.03-11.06,2.64-16.19,1.44-4.05-.34-11.01,2.19-10.23-4.66h0ZM619.83,86.65c-.26-.31-.47-.41-.64-.07.08.36.32.31.64.07ZM621.57,103.44c-.22.19-.35.31-.49.43.29.39.52.39.86.07-.11-.14-.21-.28-.38-.49ZM623.41,87.53c-.19.08-.46.19-.72.29.86,2.37,3.83-.12.72-.29ZM623.58,93.49c.05-.1.09-.19.14-.29-.36-.26-.68-.07-1.03.1.17.48.51.27.89.19h0ZM625.49,96.58c-.11-.6-.78-1.56-1.7-1.25-1.86,1.09,1.67,4.59,1.7,1.25ZM628.39,74.39c-.73-.18-1.51-.66-1.56.2.39.86.8.22,1.56-.2ZM629.04,100.52c-.07-1.04-1.86-1.62-1.92-.28.06,1.03,1.87,1.63,1.92.28ZM631.35,86.14c-.19-1.06-1.86-1.13-1.93-.09.35.95,1.3.49,1.93.09ZM636.33,106.4c10.78-2.36,9.2-24.12,5.76-31.08-1.24-2.93-4.9-6.43-7.85-4.53.02,5.68.2,11.26-.55,16.74,1.18.61.04,1.42.19,2.12,1.26,1.65-.98,3.94.24,5.99,1,3.78-2.11,8.45,2.21,10.77h0ZM647,106.04c-.18-.78-2.48-1.34-2.58-.13-.3,1.21,2.69,2.17,2.58.13ZM653.38,106.37c.11-1.01-1.5-1.17-1.57-.14-.11,1.01,1.5,1.17,1.57.14ZM654.39,102.04c.25-.31.31-.54-.06-.63-.34.15-.23.38.06.63ZM656.61,101.03c1.5.04,1.59-1.97.45-2.25-1.67.28-2.11,1.79-.45,2.25Z"/>
  </g>
  <path class="cls-1" d="M9.67,92.07c0,8.15,1.66,13.87,4.98,17.14,3.32,3.27,7.92,4.91,13.79,4.91,5.12,0,9.13-1.23,12.02-3.7,2.89-2.46,4.34-5.88,4.34-10.24v-.43h9.39v.71c0,6.73-2.35,12.14-7.04,16.21-4.69,4.08-11.16,6.12-19.41,6.12s-15.17-2.51-20.19-7.54c-5.03-5.03-7.54-12.85-7.54-23.46v-12.52c0-10.33,2.51-17.99,7.54-22.97,5.02-4.98,11.66-7.47,19.91-7.47s14.86,2.49,19.84,7.47c4.98,4.98,7.47,12.63,7.47,22.97v8.53H9.67v4.27ZM9.67,78.99v1.57h35.41v-2.56c0-7.49-1.56-12.75-4.69-15.78-3.13-3.03-7.44-4.55-12.94-4.55s-9.72,1.59-12.94,4.76c-3.22,3.18-4.83,8.7-4.83,16.57Z"/>
  <path class="cls-1" d="M75.65,49.83l18.77,57.88,18.77-57.88h10.38l-24.89,72.1h-8.67l-24.89-72.1h10.52Z"/>
  <path class="cls-1" d="M143.62,92.07c0,8.15,1.66,13.87,4.98,17.14,3.32,3.27,7.92,4.91,13.79,4.91,5.12,0,9.13-1.23,12.02-3.7,2.89-2.46,4.34-5.88,4.34-10.24v-.43h9.39v.71c0,6.73-2.35,12.14-7.04,16.21-4.69,4.08-11.16,6.12-19.41,6.12s-15.17-2.51-20.19-7.54c-5.02-5.03-7.54-12.85-7.54-23.46v-12.52c0-10.33,2.51-17.99,7.54-22.97,5.03-4.98,11.66-7.47,19.91-7.47s14.86,2.49,19.84,7.47c4.98,4.98,7.47,12.63,7.47,22.97v8.53h-45.08v4.27ZM143.62,78.99v1.57h35.41v-2.56c0-7.49-1.56-12.75-4.69-15.78-3.13-3.03-7.44-4.55-12.94-4.55s-9.72,1.59-12.94,4.76c-3.22,3.18-4.83,8.7-4.83,16.57Z"/>
  <path class="cls-1" d="M217.28,49.83v8.82c2.08-3.22,4.81-5.64,8.18-7.25s7.13-2.42,11.31-2.42c7.68,0,13.58,2.25,17.71,6.75,4.12,4.5,6.19,10.78,6.19,18.84v47.36h-9.67v-45.93c0-5.97-1.47-10.52-4.41-13.65-2.94-3.13-7.02-4.69-12.23-4.69s-9.22,1.59-12.3,4.76c-3.08,3.18-4.62,7.7-4.62,13.58v45.93h-9.67V49.83h9.53Z"/>
</svg>