<svg xmlns="http://www.w3.org/2000/svg" id="Layer_1" data-name="Layer 1" viewBox="0 0 512 512"><defs><style>      .cls-1 {        fill: #fff;      }      .cls-2 {        fill: #437d37;      }    </style></defs><rect class="cls-2" x="11.9" y="11.9" width="488.2" height="488.2" rx="244.1" ry="244.1"></rect><g><path class="cls-1" d="M108.61,241.36h100.86v22.49h-100.86v85.87h117.9v22.49H83.73v-235.12h142.78v22.49h-117.9v81.78Z"></path><path class="cls-1" d="M265.39,284.97v-61c0-31.12,7.44-53.9,22.32-68.32,14.88-14.43,34.81-21.64,59.8-21.64,16.13,0,30.22,2.95,42.26,8.86,12.04,5.91,21.35,14.26,27.94,25.05,6.59,10.79,9.88,23.23,9.88,37.31v1.36h-24.87v-1.36c0-14.99-4.94-26.86-14.82-35.61-9.88-8.75-23.23-13.12-40.04-13.12-18.85,0-33.17,5.4-42.93,16.19-9.77,10.79-14.65,28.22-14.65,52.3v61.34c0,43.84,19.31,65.77,57.93,65.77,17.95,0,31.64-4.88,41.06-14.65,9.43-9.77,14.14-25.33,14.14-46.69v-18.06h-56.23v-21.47h81.1v35.1c0,30.89-7.27,53.39-21.81,67.47-14.54,14.09-34.19,21.13-58.95,21.13s-44.92-7.21-59.8-21.64c-14.88-14.42-22.32-37.2-22.32-68.32Z"></path></g></svg>