<?xml version="1.0" encoding="UTF-8" standalone="no"?><!DOCTYPE svg PUBLIC "-//W3C//DTD SVG 1.1//EN" "http://www.w3.org/Graphics/SVG/1.1/DTD/svg11.dtd"><svg fill="#fff" width="100%" height="100%" viewBox="0 0 2894 734" version="1.1" xmlns="http://www.w3.org/2000/svg" xmlns:xlink="http://www.w3.org/1999/xlink" xml:space="preserve" xmlns:serif="http://www.serif.com/" style="fill-rule:evenodd;clip-rule:evenodd;stroke-linejoin:round;stroke-miterlimit:2;"><g><path d="M2722.417,443.208c-0.292,4.292 -7,3.625 -6.542,-0.583c0.292,-4.292 7,-3.625 6.542,0.583Zm4.208,-18.042c-1.208,-1.042 -1.667,-2 -0.25,-2.625c1.542,0.375 1.292,1.333 0.25,2.625Zm9.25,-4.208c-6.917,-1.917 -5.083,-8.208 1.875,-9.375c4.75,1.167 4.375,9.542 -1.875,9.375Zm-105.25,-62.042c-2.625,1.667 -6.583,3.583 -8.042,-0.375c0.292,-4.333 7.25,-4.042 8.042,0.375Zm20.75,84.417l0,0.042c-18,-9.667 -5.042,-29.125 -9.208,-44.875c-5.083,-8.542 4.25,-18.083 -1,-24.958c-0.625,-2.917 4.125,-6.292 -0.792,-8.833c3.125,-22.833 2.375,-46.083 2.292,-69.75c12.292,-7.917 27.542,6.667 32.708,18.875c14.333,29 20.917,119.667 -24,129.5Zm44.458,-1.5c0.458,8.5 -12,4.5 -10.75,-0.542c0.417,-5.042 10,-2.708 10.75,0.542Zm-105.958,-10.833l-0.042,0.042c0.708,0.875 1.125,1.458 1.583,2.042c-1.417,1.333 -2.375,1.333 -3.583,-0.292c0.583,-0.5 1.125,-1 2.042,-1.792Zm7.667,-66.292c12.958,0.708 0.583,11.083 -3,1.208c1.083,-0.417 2.208,-0.875 3,-1.208Zm0.708,24.833c-1.583,0.333 -3,1.208 -3.708,-0.792c1.458,-0.708 2.792,-1.5 4.292,-0.417c-0.208,0.417 -0.375,0.792 -0.583,1.208Zm7.958,12.875c-0.125,13.917 -14.833,-0.667 -7.083,-5.208c3.833,-1.292 6.625,2.708 7.083,5.208Zm12.083,-92.458c-3.167,1.75 -4.875,4.417 -6.5,0.833c0.208,-3.583 3.458,-1.583 6.5,-0.833Zm2.708,108.875c-0.208,5.625 -7.75,3.125 -8,-1.167c0.25,-5.583 7.708,-3.167 8,1.167Zm-38.375,-57.792c-1.333,1 -2.333,1.208 -2.667,-0.292c0.708,-1.417 1.583,-1 2.667,0.292Zm-991.042,-118.333c-2,0.583 -4.292,-0.958 -5.042,-3.292c4.375,-5.708 16.833,4.417 5.042,3.292Zm56.667,113.917l-0,0.042c-10.917,-7.167 -5.833,-22.042 -7.083,-32.625c2.042,-5.083 -2.625,-9.333 1.208,-14.125c0.833,-4.375 -2.875,-8.208 0.458,-12.542c1.292,-2.5 -3.417,-13.917 1.708,-12.792c10.708,1.292 20.417,4.083 28.667,13.167c15.667,22.542 1.792,55.125 -24.958,58.875Zm338.292,52.667l0.042,-0c-0.875,0.667 -1.708,1.292 -2.833,2.125c-0.833,-0.708 -1.292,-1.125 -1.792,-1.583c1.625,-0.667 3.208,-2.5 4.583,-0.542Zm-75.833,-122.625c40.458,-4.125 40.5,168.333 -4.25,159.958c-36.708,-2.667 -38.25,-163.542 4.25,-159.958Zm473.292,-2.75c-1.042,1.25 -1.958,1.667 -2.625,0.25c0.333,-1.542 1.333,-1.292 2.625,-0.25Zm-936.333,206.417c6.667,-0.625 9.167,5.625 2.833,6.625c-4.25,0.667 -5.542,-4.167 -2.833,-6.625Zm-69.042,-214.625c-0.792,0.917 -1.375,1.542 -1.958,2.208c-1.917,-1.25 0.042,-4.333 1.958,-2.208Zm-7.375,-32.458c2.708,2 8.292,2.333 6.25,6.5c-3.708,3.833 -13.5,-3.375 -6.25,-6.5Zm59.833,20.208c-2.542,0.542 -4.375,-0.958 -5.792,-3.083c-3.083,-11.542 16.917,0.917 5.792,3.083Zm-75.5,22c-1.208,-0.917 -1.917,-1.5 -2.667,-2.083c1.917,-2.792 3.583,-2.583 6.125,-0.667c-1.083,0.875 -2.167,1.708 -3.458,2.75Zm-6.75,61.625c-0.708,11.417 -7.25,3.125 -8.875,-2.667c-2.333,-9.083 9.792,-2.917 8.875,2.667Zm30.917,-91.5c-1.333,1.042 -2.292,1.25 -2.667,-0.292c0.667,-1.417 1.583,-1 2.667,0.292Zm86.625,-8.917c1.083,1.625 1.708,2.625 2.333,3.625c-3.292,2.625 -5.125,-0.708 -2.333,-3.625Zm-12.458,221.167c-2.875,1.125 -3.167,1.625 -4.833,-0.333c1.958,-1.583 2.167,-1.208 4.833,0.333Z"/><path d="M1206.833,58.125c4.667,-6.417 9.25,-12.708 13.792,-19c1.917,-0.75 3.833,-1.958 5.792,-2.167c27.083,-3.083 54.167,-7.167 81.333,-8.667c26.875,-1.5 54.792,5.875 80.542,-1.75c41.375,-12.25 82.417,-6.75 123.542,-7c180.875,-1.167 361.792,-0.625 542.667,-0.208c14.292,0 28.667,-4 43,7.625c7.208,5.833 19.667,4.25 28.5,0.458c37.583,-16.208 75.875,-5.458 113.75,-8.042c22.542,-1.542 45.25,0.875 67.833,-0.625c21.792,-1.458 43.417,-6 65.167,-8.417c9.625,-1.042 19.458,-1.333 29.042,0.167c8.917,1.375 17.542,7.208 26.458,8.208c16.625,1.917 32.833,-0.333 49.167,-7.917c14.417,-6.708 31.417,6.875 45.917,-9.042c3.292,-3.625 10.458,-0.542 15.833,-0.542c20.458,0 40.917,-0.542 61.375,0.167c17.875,0.625 36.875,-2 53.333,5.375c17.083,7.667 35.417,-5.583 51.625,11.333c5.458,5.708 16.75,0.917 25.333,0.917c28,0 56.292,3.417 83.917,-0.917c29.75,-4.667 58.417,28.625 69.833,65.833c5.25,17.167 9.75,36.208 9.417,57.25c-0.917,58.25 -11.542,115.75 -7,174.333c-11.833,40.833 -2.167,84.083 -7.125,125.208c-4.5,37.458 -2.167,75.667 -7.25,111.792c-3.458,24.5 -4.833,48.292 -4.583,72.333c0.208,19.417 -5.458,35.792 -10,52.417c-8.458,30.75 -25.292,46.625 -50.083,45.583c-20.458,-0.875 -41.75,4.667 -61.125,-1.667c-16.625,-5.417 -33.167,-10.625 -49.167,-6.75c-53.917,13 -108.083,7.167 -162.167,8.042c-53.833,0.875 -107.667,-0.292 -161.5,0.583c-10.958,0.167 -21.833,6.667 -32.875,8.167c-10.667,1.458 -22.083,3.375 -32.167,-0.208c-39.792,-14.125 -80.125,-7.042 -120.167,-8.125c-40.917,-1.083 -81.833,0.583 -122.75,-0.542c-27.417,-0.75 -53.5,12.542 -81.375,10.5c-15.917,-1.167 -30.125,-9.667 -45.708,-10.708c-15.292,-1.042 -31.417,7.5 -46.167,-7.792c-4.125,-4.292 -12.583,-0.667 -19.042,-0.667l-410.25,0c-62.333,15.75 -125.25,6.667 -187.917,8.667c-8.125,0.25 -16.417,-2 -24.375,-4.667c-22.958,-7.667 -26.083,-35.875 -32.083,-60.875c-0.625,-2.667 -0.208,-5.917 -0.083,-8.875c4.917,-91.083 -9.458,-181.208 -6.875,-272.292c0.583,-20.875 -4.708,-41.958 -5.833,-63.083c-1.083,-20.667 3.5,-43.375 -1.292,-61.75c-4.875,-18.708 -8.458,-37.75 -4.75,-54.417c10.208,-45.958 2.875,-92.583 6.5,-138.417l0.042,0.167Zm434.625,360.083l-0.042,0c-0.167,-0.042 -0.292,-0.125 -0.458,-0.125c0.917,-5.75 0.25,-12.125 2.083,-17.5c7.292,16.458 12.208,36.167 20.458,52.167c-3.292,5.417 2.292,7.667 4,11.667c-3.875,7.542 7.958,11.042 5,18.625c15.583,28.958 7.708,36.167 47.042,35.083c12.042,-3.708 25.958,0.167 38.292,-1c3.333,-2.25 11.833,2.375 11.917,-3.917c-1.75,-3.792 1.667,-9 -3.708,-11.833c-6.083,-8.75 -7.125,-24.167 -14.625,-30.75c-4.875,-0.958 1.625,-6.958 -3.667,-8.667c-5.417,-2.333 -2.042,-7.25 -3.667,-11.292c-6.917,-10.75 -11.875,-22.125 -19.208,-32.875c-2.083,-15.958 -18.417,-23.958 4.125,-38.75c13.333,-12.75 23.917,-26.625 29.167,-43.417c15.667,-58.708 -27.042,-119.542 -92.167,-115.792c-10.833,-8.5 -23.167,0.375 -33.917,-7.042c-12.333,4.458 -28.625,2 -42.125,3.417c-18.25,-3.375 -28.875,-1.167 -29.917,18.25c-2.667,5.292 1.042,9.292 1.208,13.792c-4.375,2.625 -2.708,6.5 -1.167,9.292c1.792,11.292 -2.333,24.542 -0.208,36.292c-4.042,3.75 0.833,8.25 0.833,12c-1.167,4.583 -2.042,10.25 -1.167,14.583c4.917,22.792 -3.333,51.167 1.875,75.542c1.125,1.417 0.75,2.792 -0.5,3.333c-5.125,2.583 -1.25,8.167 -1.583,11.917c0.375,13.958 -0.083,29.167 2.167,42.417c2.833,14.25 -12.583,66.792 12.417,63.083c5.458,5.25 10.625,-2.583 15.75,1c3.417,2.625 7.25,-1.667 11.083,0.792c2.25,0.25 3.625,-3.25 6.5,-2.417c4.375,-0.583 6.75,5 10.583,0.5c4.542,2.458 8.583,-0.417 13.25,-0.625c19.625,-10.125 6,-39.542 10,-56.167c-1.75,-1.458 -1.75,-2.917 -0.083,-4.417c2.833,-3.875 -5.083,-8.583 0,-13.083c3.25,-7.625 -3.958,-16.083 0.458,-24.083Zm278.458,104.625c143.958,-13.25 139.625,-315.833 -9.583,-312.75c-41.208,-3.667 -80.042,29.833 -97.667,65.667c-11.792,10.708 -6.667,28.792 -13.833,42.208c-2.833,6 0.083,12.042 -1.542,18.375c-4.208,5.5 0.125,9.833 -1.292,15.75c-10.792,78.75 34.5,177.5 123.917,170.75Zm482.125,-104.125l0.083,-0.042c1.667,11.667 11,20.208 13.583,31.833c5.625,9.208 3,22.875 10.5,30.792c6.292,12.792 7.292,30.583 23.417,35.875c8.5,-4.583 17.542,5.667 24.708,-0.208c3.375,-3.542 5.25,4.708 8.875,0.542c2.875,-1.75 6.083,-2.875 8.792,0.417c6.625,2.167 14.083,-0.125 20.542,-3.125c8.917,-27.458 1.958,-62.833 3.875,-92.958c3.083,-21.042 1.458,-43.917 0.125,-66.583c1.083,-21 2.083,-42.833 -0.792,-63.833c0.917,-13.958 9.75,-76.458 -10.625,-75.25c-16.5,0.875 -35,-3 -51.125,0.708c-14.708,-2.292 -14.292,11.5 -16.125,20.875c6,7.792 -3.042,17.875 2.292,25.917c1.833,3.25 -4.75,4.25 -1.875,8.417c3.875,14.458 -0.75,31.292 1.333,46.333c2.292,8.417 3.167,20.625 2.083,29.333c4.5,12.292 7.458,28.083 4.292,39.958c-10.083,-17.708 -7.292,-38.958 -19.875,-55.333c-5.333,-11.167 -7.25,-23.708 -13.375,-34.417c0.667,-9.5 -4.958,-8.792 -6.167,-16.458c-8.083,-19.667 -11.542,-49.208 -27.625,-62.792c-2.75,-0.042 -4.625,-5.417 -7.792,-2.958c-6.208,3.083 -13.167,-0.917 -19.75,-0.542c-27.417,6.417 -45.333,-14.708 -47.5,26.042c-1.458,3.958 5.042,6.417 0.375,9.792c-0.333,3.083 4.583,7.167 1.375,10.125c-4.875,41.833 1.958,86.167 -1.958,127.167c2.5,40.25 -1.75,82.833 2.708,123.292c4.5,9.583 16.208,3.75 23.833,4.917c14.167,2.167 27.708,0.542 42.208,1c17.083,-6.875 7.208,-41.333 8.875,-56.708c2.667,-13.875 0.333,-27.083 -0.042,-40.583c-1.625,-17.875 -2.375,-34.875 -1.5,-52.375c-6.75,-27.542 1.5,-11.5 6.625,1.375c1.208,10.583 4.625,19.875 9.292,28.792c-3.25,9.292 6.917,13.208 6.333,20.667Zm158.708,79.542l0.042,0.083c-3.25,28.542 25.75,18 42.625,19.417c21.375,5 46.083,-1.708 67.458,-6c6.417,0.833 10.375,-1.625 15.083,-5.417c11.5,-1.583 24.125,-6.667 33.292,-13.542c22.125,-13.042 31.292,-36.167 40.583,-57.375c5.917,-22.625 11.875,-48.375 9.333,-72.833c-0.917,-18 -4.875,-35.792 -7.458,-53.958c-8.417,-14.792 -8.417,-35.125 -24.583,-45.125c-7.792,-6 -9.875,-18 -20.5,-19.833c-1.542,-3.042 -5.75,-2.25 -7.292,-5.042c-0.833,-2.75 -2.583,-3.208 -5.083,-3.125c-3.083,0.083 -5.708,-0.042 -7.958,-3.333c-3.667,-5.875 -14.083,-0.25 -18.958,-6.417c-14.208,-6.417 -31.042,-6.875 -44.458,-9.125c-6.375,-2.292 -12.083,3.667 -17.958,-0.25c-1.417,-1 -2.792,-1.417 -4.292,-0.375c-2.833,2.708 -5.875,-2.625 -8.5,0.417c-29.917,2.75 -42.792,-9.875 -41.292,29.542c2.208,22.125 -2.458,52.167 -0.542,78.542c1.125,57.958 -0.083,115.25 0.458,173.75Zm-1089.458,-195.958l-0.042,0.083c0.083,0.25 0.167,0.542 0.208,0.792c59,-14.708 47.708,-30.75 11.083,-65.708c-27,-35.958 -90.458,-32.792 -124.042,-10.208c-18.625,8.292 -29.417,26.833 -38.667,42.792c-6.333,1.833 -1.75,8.167 -4.417,11.583c-3.542,8.583 -11.625,17.708 -9.625,28.042c-6.417,16.333 -7.167,35.417 -5.542,53.458c-2.042,19.583 0.833,43.792 3.167,63.542c13.5,43.75 41.042,85.875 88.417,95.458c83.167,9.667 122.417,-35.708 127.625,-116.833c1.708,-19.5 8.958,-38.667 5.125,-57.167c-28.958,-11.542 -60.167,-1.25 -90.5,-4.5c-6.958,2.042 -19.875,-2.083 -21.25,8.25c-4.042,15.25 -1.792,35.167 1.458,50.167c7.083,2.375 10.667,7.792 18.542,4.917c9.625,8.333 8.167,10.708 4.25,22.292c2.625,9.125 -9.625,12.917 -14.583,19.917c-19.333,12.958 -35.292,-14.75 -37.083,-30.708c-7.417,-18.625 0.167,-40.875 -3.833,-58.917c-1.75,-1.542 -0.167,-2.833 0.958,-3.833c2.875,-4.542 -4.333,-10.75 2.958,-15.333c0.875,-13.167 0.542,-29.417 7.708,-40.833c9.375,-10.833 12.375,-22.708 30.667,-14.875c21.667,19.042 12.917,37.875 47.417,17.625Zm669.5,-68l0.125,-0.208c-0.167,-0.042 -0.333,-0.083 -0.5,-0.083c3.208,-13.083 -12.958,-23.375 -23.333,-17.25c-8.917,-1.25 -19.417,-4.458 -28.708,-2.167c-45.875,-8.333 -25.458,40.75 -30.625,67.208c1.792,20 0.958,41.083 0.125,60.75c-1.75,6.833 3,11.208 -1,17.708c4.333,9.833 1.625,20.083 0,31.083c-0.333,1.958 -0.583,4 1.25,5.542c2.458,4 -5,8.625 0,13.167c3.083,6.042 -1.417,13.667 2.167,19.792c4.625,17.958 11,35.417 17.375,52.667c9.958,12.333 18.208,26.958 35.792,30.708c10.125,-1.5 18.292,10.375 27.708,6.667c2.917,-2 4.708,2.667 7.875,0.875c19.208,2.875 44.792,1.958 64,-8.542c5.625,1.333 6.792,-5.667 10.958,-6.75c4.833,1.25 4.792,-3.708 7.875,-5.292c5.958,-1.5 4.583,-10.875 12.083,-10.833c3.125,-1.375 1.375,-6.167 5.417,-7.083c13.167,-20.417 9.708,-44.75 14.625,-67.042c-1.417,-3.125 -3.708,-5.75 -0.667,-9.167c-1.75,-3.833 -4.875,-8 -0.292,-11.667c1.25,-9 -3.542,-20.542 0.708,-29.667c0.458,-24.292 -2.167,-47.417 -1.208,-71.125c-2.042,-2 -0.583,-3.125 0.25,-4.958c4.042,-4.292 -1.167,-8.125 0.042,-12.583c1.792,-15.708 -0.667,-32 -0.542,-48.292c-1.667,-20.958 -40,-11.458 -54.167,-10.667c-32.917,-8.333 -24.75,14.667 -26.958,36.375c-0.5,1.792 -1.083,3.667 0.375,4.958c3.625,5.542 -4.708,13.125 0.792,18.625c-2.875,7.375 0.167,13.75 -2.458,21.25c1.333,3.417 -1.875,6.625 2,8.792c2.667,1.667 -0.583,3.208 -1.083,4.792c-0.5,13.458 1.792,26.917 2.333,40.417c-7.917,17.958 10.375,89.792 -16.833,92.875c-39.125,12.958 -25.542,-75.542 -26.5,-98.583c0.792,-19.458 -0.542,-38.25 0.833,-58.583c-0.917,-18.333 -2.708,-35.875 0.167,-53.708Z"/></g><path d="M40.292,383.625c0,33.958 6.917,57.792 20.75,71.417c13.833,13.625 33,20.458 57.458,20.458c21.333,0 38.042,-5.125 50.083,-15.417c12.042,-10.25 18.083,-24.5 18.083,-42.667l0,-1.792l39.125,0l0,2.958c0,28.042 -9.792,50.583 -29.333,67.542c-19.542,17 -46.5,25.5 -80.875,25.5c-34.375,0 -63.208,-10.458 -84.125,-31.417c-20.958,-20.958 -31.417,-53.542 -31.417,-97.75l0,-52.167c0,-43.042 10.458,-74.958 31.417,-95.708c20.917,-20.75 48.583,-31.125 82.958,-31.125c34.375,0 61.917,10.375 82.667,31.125c20.75,20.75 31.125,52.625 31.125,95.708l0,35.542l-187.917,0l0,17.792Zm0,-54.5l0,6.542l147.542,0l-0,-10.667c0,-31.208 -6.5,-53.125 -19.542,-65.75c-13.042,-12.625 -31,-18.958 -53.917,-18.958c-22.917,0 -40.5,6.625 -53.917,19.833c-13.417,13.25 -20.125,36.25 -20.125,69.042l-0.042,-0.042Z" style="fill-rule:nonzero;"/><path d="M315.208,207.625l78.208,241.167l78.208,-241.167l43.25,0l-103.708,300.417l-36.125,0l-103.708,-300.417l43.875,-0Z" style="fill-rule:nonzero;"/><path d="M598.417,383.625c0,33.958 6.917,57.792 20.75,71.417c13.833,13.625 33,20.458 57.458,20.458c21.333,0 38.042,-5.125 50.083,-15.417c12.042,-10.25 18.083,-24.5 18.083,-42.667l0,-1.792l39.125,0l0,2.958c0,28.042 -9.792,50.583 -29.333,67.542c-19.542,17 -46.5,25.5 -80.875,25.5c-34.375,0 -63.208,-10.458 -84.125,-31.417c-20.917,-20.958 -31.417,-53.542 -31.417,-97.75l0,-52.167c0,-43.042 10.458,-74.958 31.417,-95.708c20.958,-20.75 48.583,-31.125 82.958,-31.125c34.375,0 61.917,10.375 82.667,31.125c20.75,20.75 31.125,52.625 31.125,95.708l0,35.542l-187.833,0l0,17.792l-0.083,0Zm0,-54.5l0,6.542l147.542,0l0,-10.667c0,-31.208 -6.5,-53.125 -19.542,-65.75c-13.042,-12.625 -31,-18.958 -53.917,-18.958c-22.917,0 -40.5,6.625 -53.917,19.833c-13.417,13.25 -20.125,36.25 -20.125,69.042l-0.042,-0.042Z" style="fill-rule:nonzero;"/><path d="M905.333,207.625l0,36.75c8.667,-13.417 20.042,-23.5 34.083,-30.208c14.042,-6.708 29.708,-10.083 47.125,-10.083c32,0 56.583,9.375 73.792,28.125c17.167,18.75 25.792,44.917 25.792,78.5l0,197.333l-40.292,0l0,-191.375c0,-24.875 -6.125,-43.833 -18.375,-56.875c-12.25,-13.042 -29.25,-19.542 -50.958,-19.542c-21.708,0 -38.417,6.625 -51.25,19.833c-12.833,13.25 -19.25,32.083 -19.25,56.583l0,191.375l-40.292,0l0,-300.417l39.708,0l-0.083,0Z" style="fill-rule:nonzero;"/></svg>